<svg width="50" height="50" viewBox="0 0 50 50" fill="none" xmlns="http://www.w3.org/2000/svg">
<path d="M19.269 15.5964L28.8329 25.501L19.269 35.4056C19.0978 35.5825 19.002 35.8201 19.002 36.0675C19.002 36.3148 19.0978 36.5524 19.269 36.7294C19.3522 36.8151 19.4515 36.8831 19.561 36.9296C19.6706 36.9761 19.7882 37 19.907 37C20.0259 37 20.1435 36.9761 20.253 36.9296C20.3626 36.8831 20.4618 36.8151 20.545 36.7294L30.7213 26.1926C30.9 26.0076 31 25.7594 31 25.501C31 25.2426 30.9 24.9944 30.7213 24.8094L20.547 14.2727C20.4637 14.1864 20.3642 14.1178 20.2543 14.071C20.1444 14.0241 20.0263 14 19.907 14C19.7877 14 19.6696 14.0241 19.5597 14.071C19.4498 14.1178 19.3503 14.1864 19.2671 14.2727C19.0959 14.4496 19 14.6872 19 14.9346C19 15.1819 19.0959 15.4195 19.2671 15.5964L19.269 15.5964Z" fill="#CB4C4E"/>
<circle cx="25" cy="25" r="24.5" transform="rotate(-90 25 25)" stroke="#E0E0E0"/>
</svg>
