<svg width="50" height="50" viewBox="0 0 50 50" fill="none" xmlns="http://www.w3.org/2000/svg">
<g id="Group 34183">
<circle id="Ellipse 290" cx="25" cy="25" r="25" fill="#CB4C4E"/>
<path id="Vector" d="M35.4036 19.269L25.499 28.8329L15.5944 19.269C15.4175 19.0978 15.1799 19.002 14.9325 19.002C14.6852 19.002 14.4476 19.0978 14.2706 19.269C14.1849 19.3522 14.1169 19.4515 14.0704 19.561C14.0239 19.6706 14 19.7882 14 19.907C14 20.0259 14.0239 20.1435 14.0704 20.253C14.1169 20.3626 14.1849 20.4618 14.2706 20.545L24.8074 30.7213C24.9924 30.9 25.2406 31 25.499 31C25.7574 31 26.0056 30.9 26.1906 30.7213L36.7273 20.547C36.8136 20.4637 36.8822 20.3642 36.929 20.2543C36.9759 20.1444 37 20.0263 37 19.907C37 19.7877 36.9759 19.6696 36.929 19.5597C36.8822 19.4498 36.8136 19.3503 36.7273 19.2671C36.5504 19.0959 36.3128 19 36.0654 19C35.8181 19 35.5805 19.0959 35.4036 19.2671V19.269Z" fill="white"/>
</g>
</svg>
