<?xml version="1.0" encoding="UTF-8"?>
<!DOCTYPE svg PUBLIC "-//W3C//DTD SVG 1.1//EN" "http://www.w3.org/Graphics/SVG/1.1/DTD/svg11.dtd">
<!-- Creator: CorelDRAW X7 -->
<svg xmlns="http://www.w3.org/2000/svg" xml:space="preserve" width="31.2192mm" height="28.8548mm" version="1.1" style="shape-rendering:geometricPrecision; text-rendering:geometricPrecision; image-rendering:optimizeQuality; fill-rule:evenodd; clip-rule:evenodd"
viewBox="0 0 717 663"
 xmlns:xlink="http://www.w3.org/1999/xlink">
 <defs>
  <style type="text/css">
   <![CDATA[
    .fil0 {fill:#909881}
    .fil1 {fill:#FEFEFE}
   ]]>
  </style>
 </defs>
 <g id="Layer_x0020_1">
  <metadata id="CorelCorpID_0Corel-Layer"/>
  <g id="_2683821553120">
   <path class="fil0" d="M358 377c24,-10 91,-63 112,-80 28,-23 72,-59 82,-112 18,-92 -72,-158 -142,-125 -38,18 -29,28 -52,47 -12,-10 -50,-78 -127,-49 -80,31 -108,138 13,237 18,16 92,72 114,82z"/>
   <path class="fil1" d="M358 350c14,-7 36,-24 49,-34 42,-30 113,-81 123,-136 10,-51 -24,-94 -63,-104 -71,-17 -78,56 -109,56 -31,0 -36,-70 -105,-57 -41,9 -77,53 -67,105 11,56 79,104 121,134 17,13 32,26 51,36z"/>
   <path class="fil0" d="M146 552c-29,16 -56,2 -45,110l234 1c11,-112 -19,-95 -44,-111 -6,-154 8,-138 -105,-255 -61,-64 -102,-32 -87,13 7,21 21,41 33,58 6,10 11,18 17,27 8,13 9,20 25,16l2 -7c0,-5 1,-4 -1,-9 -3,-13 -59,-77 -57,-109 26,-6 50,27 62,39 18,19 35,35 53,55 36,41 42,112 34,175l-97 0c-7,-98 -112,-125 -139,-220 -17,-62 -5,-177 2,-248 2,-25 2,-57 27,-62 25,34 17,199 32,216 26,27 15,-44 14,-55 -5,-47 -7,-103 -15,-148 -10,-57 -64,-48 -76,15 -15,72 -24,235 -2,300 29,82 135,135 133,199z"/>
   <path class="fil0" d="M656 25c38,7 32,107 34,143 4,56 10,115 -5,167 -27,94 -132,125 -139,220l-97 0c-7,-64 -2,-134 35,-175 19,-21 85,-101 114,-93 2,20 -17,46 -28,63 -7,10 -30,39 -30,51 0,9 0,5 3,10 14,4 19,-6 26,-19 14,-22 63,-84 50,-113 -24,-36 -61,-8 -80,9 -114,104 -109,125 -114,264 -26,16 -45,-1 -44,78l0 32 234 1c10,-109 -13,-94 -44,-111 -4,-84 146,-111 146,-293 1,-54 -5,-155 -15,-206 -6,-27 -19,-60 -52,-51 -28,8 -26,49 -29,83 -4,33 -7,66 -11,99 0,5 -13,75 12,58 19,-12 9,-188 34,-217z"/>
   <path class="fil1" d="M404 640l189 1c11,-83 -17,-63 -144,-63 -47,0 -52,10 -45,62z"/>
   <path class="fil1" d="M124 640l188 1c11,-81 -10,-63 -157,-63 -37,0 -37,25 -31,62z"/>
   <path class="fil0" d="M235 190c3,-17 -4,-33 5,-49 16,-29 33,-1 32,-34 -27,-16 -62,16 -60,61 1,22 4,22 23,22z"/>
  </g>
 </g>
</svg>
