<?xml version="1.0" encoding="UTF-8"?>
<!DOCTYPE svg PUBLIC "-//W3C//DTD SVG 1.1//EN" "http://www.w3.org/Graphics/SVG/1.1/DTD/svg11.dtd">
<!-- Creator: CorelDRAW X7 -->
<svg xmlns="http://www.w3.org/2000/svg" xml:space="preserve" width="27.0585mm" height="31.4521mm" version="1.1" style="shape-rendering:geometricPrecision; text-rendering:geometricPrecision; image-rendering:optimizeQuality; fill-rule:evenodd; clip-rule:evenodd"
viewBox="0 0 1756 2041"
 xmlns:xlink="http://www.w3.org/1999/xlink">
 <defs>
  <style type="text/css">
   <![CDATA[
    .fil0 {fill:#909881}
   ]]>
  </style>
 </defs>
 <g id="Layer_x0020_1">
  <metadata id="CorelCorpID_0Corel-Layer"/>
  <g id="_2683822060624">
   <path class="fil0" d="M74 325c-42,0 -74,36 -74,80l0 695c0,70 11,138 24,198 13,62 35,114 58,170 86,207 259,356 456,451 51,25 111,45 164,64 203,74 140,81 356,-2 150,-57 184,-62 310,-145 219,-145 388,-428 388,-753l0 -724c0,-48 -41,-70 -86,-69 -41,1 -114,12 -137,10 -156,-10 -242,-28 -370,-95 -51,-26 -143,-93 -184,-135 -52,-52 -51,-70 -113,-70 -34,0 -67,52 -114,90 -15,12 -24,24 -39,36 -52,43 -111,83 -173,112 -64,31 -128,55 -207,72 -46,10 -77,11 -127,15 -113,9 -49,0 -132,0zm78 81c-38,0 -67,31 -67,70l0 615c0,62 11,122 22,175 12,54 32,101 52,150 78,183 234,315 412,399 46,21 100,39 148,56 183,65 127,72 321,-1 136,-51 166,-56 280,-129 198,-128 350,-378 350,-665l0 -640c0,-43 -36,-62 -77,-61 -37,1 -103,10 -124,9 -140,-9 -218,-25 -334,-84 -45,-23 -128,-83 -166,-120 -46,-45 -46,-61 -101,-61 -32,0 -61,46 -104,79 -14,11 -21,22 -35,32 -47,38 -100,73 -156,99 -58,27 -116,49 -187,64 -41,8 -70,10 -115,13 -102,8 -44,0 -119,0z"/>
   <path class="fil0" d="M815 1180c-52,-35 -185,-222 -245,-222 -44,0 -80,31 -80,74 0,44 43,73 67,98 16,16 27,27 43,43 17,17 23,29 40,46 28,29 54,53 83,82 56,56 102,122 177,21l234 -314c29,-39 166,-207 166,-244 0,-10 -14,-42 -20,-49 -29,-36 -84,-37 -124,14l-241 323c-19,25 -82,116 -100,128z"/>
  </g>
 </g>
</svg>
