<?xml version="1.0" encoding="UTF-8"?>
<!DOCTYPE svg PUBLIC "-//W3C//DTD SVG 1.1//EN" "http://www.w3.org/Graphics/SVG/1.1/DTD/svg11.dtd">
<!-- Creator: CorelDRAW X7 -->
<svg xmlns="http://www.w3.org/2000/svg" xml:space="preserve" width="32.9604mm" height="32.9602mm" version="1.1" style="shape-rendering:geometricPrecision; text-rendering:geometricPrecision; image-rendering:optimizeQuality; fill-rule:evenodd; clip-rule:evenodd"
viewBox="0 0 545 545"
 xmlns:xlink="http://www.w3.org/1999/xlink">
 <defs>
  <style type="text/css">
   <![CDATA[
    .fil0 {fill:#909881}
    .fil1 {fill:white}
   ]]>
  </style>
 </defs>
 <g id="Layer_x0020_1">
  <metadata id="CorelCorpID_0Corel-Layer"/>
  <g id="_2683815779472">
   <path class="fil0" d="M220 65c-9,4 -20,6 -30,10 -7,3 -22,12 -27,13 -11,-8 -21,-26 -38,-29 -23,-5 -36,11 -45,21 -9,9 -26,22 -21,45 3,17 21,27 29,38 -1,5 -10,20 -13,27 -4,10 -7,21 -10,30 -18,0 -40,-2 -51,8 -14,12 -14,22 -14,45 0,23 0,32 14,44 11,11 32,8 51,8 4,9 6,21 10,30 3,8 12,22 13,27 -8,11 -26,22 -29,38 -5,23 12,37 21,46 9,9 22,25 45,21 16,-3 27,-21 38,-30 5,1 20,10 27,13 10,4 21,7 30,10 0,19 -2,40 8,52 12,13 22,13 45,13 22,0 32,0 44,-13 11,-12 9,-33 8,-52 17,-7 24,-6 44,-16 4,-2 10,-6 13,-7 11,9 22,26 38,30 24,5 37,-13 46,-22 9,-9 26,-22 21,-45 -4,-16 -21,-26 -30,-38l13 -27c4,-9 7,-21 10,-30 19,0 40,3 52,-8 14,-12 13,-21 13,-44 0,-23 1,-33 -13,-45 -13,-12 -32,-7 -52,-8 -3,-7 -7,-26 -16,-44 -2,-4 -6,-9 -7,-13 11,-13 26,-23 30,-37 5,-23 -12,-37 -21,-46 -9,-9 -22,-26 -45,-22 -16,3 -28,22 -39,30 -5,-1 -20,-10 -27,-13 -9,-4 -21,-6 -30,-10 1,-18 2,-40 -8,-51 -12,-14 -22,-14 -44,-14 -23,0 -33,0 -45,14 -10,11 -9,33 -8,51z"/>
   <path class="fil1" d="M252 18c-30,7 -5,51 -19,61 -1,1 -35,9 -58,22 -15,9 -14,10 -25,-2 -7,-6 -14,-13 -21,-20 -16,-15 -36,10 -48,23 -7,8 -10,19 -1,28 43,45 29,16 8,74 -14,38 1,33 -47,33 -14,0 -22,4 -24,17 -1,5 -1,34 1,39 7,30 52,6 61,19 1,2 8,34 22,58 13,21 9,13 -22,46 -15,16 10,36 23,48 19,17 32,-2 48,-19 12,-12 12,-8 26,0 65,36 61,-1 61,59 0,14 4,22 17,24 5,1 34,1 39,0 30,-7 6,-52 19,-61 2,-2 26,-8 31,-10 57,-22 27,-34 73,9 16,15 36,-9 48,-23 7,-8 10,-19 2,-28 -45,-46 -28,-18 -9,-74 14,-38 0,-33 48,-33 14,0 21,-4 23,-16 1,-6 1,-35 0,-40 -7,-29 -52,-5 -61,-19 -2,-2 -9,-34 -23,-58 -12,-20 -8,-13 22,-46 15,-16 -9,-35 -23,-48 -19,-17 -31,2 -48,19 -16,17 -12,3 -54,-12 -38,-14 -33,1 -33,-47 0,-14 -3,-22 -16,-24 -6,-1 -35,-1 -40,1z"/>
   <path class="fil0" d="M264 115c-86,6 -153,76 -149,167 4,83 77,153 167,148 84,-5 153,-77 148,-166 -5,-84 -77,-155 -166,-149z"/>
   <path class="fil1" d="M260 132c-73,7 -135,73 -127,154 6,73 71,134 153,127 73,-7 134,-72 127,-154 -7,-73 -72,-134 -153,-127z"/>
   <path class="fil0" d="M267 179c-24,3 -44,25 -41,53 3,23 25,44 53,40 24,-3 43,-25 40,-52 -3,-24 -25,-44 -52,-41z"/>
   <path class="fil1" d="M266 197c-40,11 -23,68 14,58 14,-4 26,-18 22,-37 -4,-13 -18,-26 -36,-21z"/>
   <path class="fil0" d="M294 286l-16 5 7 47c-3,3 -9,8 -12,10l-12 -10 7 -48c-6,-1 -11,-2 -16,-3 -3,16 -8,35 -9,51 0,6 2,7 5,10 2,3 4,5 7,7 6,5 13,13 18,13 5,0 13,-9 17,-12 4,-4 13,-8 12,-17 -1,-16 -6,-36 -8,-53z"/>
   <path class="fil0" d="M196 369c0,-19 -3,-46 4,-62 7,-19 21,-25 39,-26 -3,-3 -5,-4 -8,-7 -4,-3 -6,-5 -8,-8 -19,4 -36,23 -41,41 -4,12 -3,23 -3,37 0,10 0,10 5,15 3,3 8,8 12,10z"/>
   <path class="fil0" d="M306 281c18,1 32,8 39,26 8,18 4,41 5,62 4,-3 9,-8 12,-11 6,-7 4,-9 4,-20 0,-28 -5,-53 -31,-67 -16,-8 -10,-4 -29,10z"/>
  </g>
 </g>
</svg>
