<?xml version="1.0" encoding="UTF-8"?>
<!DOCTYPE svg PUBLIC "-//W3C//DTD SVG 1.1//EN" "http://www.w3.org/Graphics/SVG/1.1/DTD/svg11.dtd">
<!-- Creator: CorelDRAW X7 -->
<svg xmlns="http://www.w3.org/2000/svg" xml:space="preserve" width="31.3998mm" height="31.3726mm" version="1.1" style="shape-rendering:geometricPrecision; text-rendering:geometricPrecision; image-rendering:optimizeQuality; fill-rule:evenodd; clip-rule:evenodd"
viewBox="0 0 1626 1624"
 xmlns:xlink="http://www.w3.org/1999/xlink">
 <defs>
  <style type="text/css">
   <![CDATA[
    .fil0 {fill:#909881}
    .fil1 {fill:white}
   ]]>
  </style>
 </defs>
 <g id="Layer_x0020_1">
  <metadata id="CorelCorpID_0Corel-Layer"/>
  <g id="_2683821553312">
   <path class="fil0" d="M1622 852c-21,-15 -124,-33 -194,-64 -31,-14 -59,-30 -84,-47 -23,-15 -56,-51 -74,-57 -30,10 -46,39 -74,52 -57,-33 -133,-88 -215,-100 -16,18 -29,24 -44,40 57,9 179,61 212,92 -29,23 -65,35 -101,46 -33,10 -110,10 -128,25 -20,47 11,212 24,264 19,78 50,151 89,209 38,58 89,111 151,147 121,71 128,5 212,-30 0,59 9,114 -42,136 -31,13 -791,5 -884,5 -98,0 -264,10 -354,0 -59,-7 -62,-51 -62,-112 1,-269 -30,-483 218,-671 98,-74 144,-76 241,-114 -52,-41 -43,-51 -159,4 -153,73 -291,219 -335,403 -16,64 -29,412 -8,465 30,71 81,76 172,76l980 0c101,0 248,29 279,-86 18,-65 -11,-139 16,-170 111,-127 186,-369 164,-513z"/>
   <path class="fil0" d="M675 5c-173,28 -322,182 -288,393 28,170 190,316 397,281 165,-28 314,-188 278,-393 -28,-167 -185,-314 -387,-281z"/>
   <path class="fil1" d="M967 880c-8,158 58,369 164,475 15,15 99,83 133,84 69,3 183,-130 225,-207 41,-76 91,-242 82,-346 -64,-14 -112,-30 -166,-53 -73,-31 -84,-49 -135,-85 -20,8 -63,50 -131,84 -57,28 -100,41 -172,48z"/>
   <path class="fil1" d="M676 56c-45,9 -73,19 -105,39 -268,164 -110,598 212,532 138,-28 262,-166 228,-340 -28,-140 -164,-263 -335,-231z"/>
   <path class="fil0" d="M180 1182l0 186c0,119 29,101 189,101 55,0 252,8 286,-6 18,-48 -18,-45 -61,-45 -92,1 -285,4 -359,-1 -9,-76 -4,-158 -4,-235 1,-173 107,-237 113,-261 12,-44 -47,-67 -121,81 -25,52 -43,112 -43,180z"/>
   <path class="fil0" d="M1225 1141c-20,-17 -41,-33 -60,-51 -20,-19 -31,-49 -67,-29 -12,33 6,42 23,56 107,88 84,114 148,53l144 -126c17,-14 36,-27 30,-59 -28,-17 -36,-9 -58,14l-160 142z"/>
  </g>
 </g>
</svg>
