<?xml version="1.0" encoding="UTF-8"?>
<!DOCTYPE svg PUBLIC "-//W3C//DTD SVG 1.1//EN" "http://www.w3.org/Graphics/SVG/1.1/DTD/svg11.dtd">
<!-- Creator: CorelDRAW X7 -->
<svg xmlns="http://www.w3.org/2000/svg" xml:space="preserve" width="29.2832mm" height="31.4472mm" version="1.1" style="shape-rendering:geometricPrecision; text-rendering:geometricPrecision; image-rendering:optimizeQuality; fill-rule:evenodd; clip-rule:evenodd"
viewBox="0 0 1465 1573"
 xmlns:xlink="http://www.w3.org/1999/xlink">
 <defs>
  <style type="text/css">
   <![CDATA[
    .fil0 {fill:#909881}
    .fil1 {fill:#F7F7F7}
   ]]>
  </style>
 </defs>
 <g id="Layer_x0020_1">
  <metadata id="CorelCorpID_0Corel-Layer"/>
  <g id="_2649305953776">
   <path class="fil0" d="M456 217l-31 73c-31,2 -121,-29 -241,-4 -175,36 -211,173 -147,322 21,51 42,82 72,125 7,10 26,31 29,40 -75,82 -183,257 -118,381 11,21 26,39 40,50 31,26 43,27 56,37 0,67 45,117 107,124 70,9 115,-35 134,-98l61 -8c13,18 90,295 271,313 142,15 229,-129 277,-235 7,-17 13,-37 22,-53 16,-1 53,7 72,10 160,19 364,-18 344,-232 20,-8 43,-34 52,-58 33,-79 -26,-188 -150,-160 -11,-18 -31,-42 -44,-58l59 -78c115,-152 156,-374 -82,-429 -94,-22 -166,-7 -258,4 -15,-61 -65,-138 -104,-189 -40,-54 -118,-103 -196,-92 -20,3 -38,8 -54,17 -30,15 -21,2 -50,-10 -43,-17 -82,-8 -116,13 -68,45 -66,149 -5,195z"/>
   <path class="fil1" d="M688 436c-54,17 -201,110 -255,146 -26,18 -21,11 -25,56 -5,57 -12,267 2,312 3,11 32,27 45,36 52,38 143,92 202,122 32,16 24,16 57,0 77,-35 142,-72 209,-112 17,-11 31,-21 47,-32 41,-26 35,-22 37,-46 3,-52 6,-105 4,-158 0,-24 0,-135 -15,-146 -29,-23 -63,-45 -97,-67 -19,-12 -195,-115 -211,-111z"/>
   <path class="fil1" d="M1000 335c7,31 23,78 33,126 6,28 18,125 25,133l65 53c9,7 13,12 21,19 8,7 14,11 22,18 15,14 33,38 59,59 58,-62 128,-170 134,-255 10,-130 -113,-166 -232,-166 -46,0 -83,8 -127,13z"/>
   <path class="fil1" d="M473 1248c7,38 60,139 79,166 163,225 317,48 382,-142 -14,-7 -42,-12 -59,-17 -64,-20 -108,-37 -168,-64 -32,-14 -24,-11 -57,2 -42,16 -172,52 -177,55z"/>
   <path class="fil1" d="M175 729c9,-5 29,-28 40,-38 7,-6 11,-12 18,-19 22,-21 81,-69 106,-88 27,-21 21,-10 27,-50 12,-81 33,-135 43,-191 -54,-8 -79,-14 -136,-14 -110,0 -213,40 -212,151 0,54 21,98 41,139 9,19 21,40 33,57l40 53z"/>
   <path class="fil1" d="M1005 1231c89,12 201,30 282,-19 48,-30 68,-66 65,-132 -105,8 -165,-111 -107,-192 7,-9 10,-8 14,-18 -5,-11 -28,-38 -37,-44l-80 75c-6,5 -12,9 -20,16l-44 36c-8,5 -18,10 -21,18l-21 135 -31 125z"/>
   <path class="fil1" d="M54 1063c0,56 30,109 77,124 34,-77 184,-102 224,26l47 -7 -28 -126c-4,-22 -8,-44 -11,-65 -7,-51 -6,-29 -70,-85l-81 -76c-11,-11 -26,-32 -41,-40 -19,37 -117,135 -117,249z"/>
   <path class="fil1" d="M642 70c9,39 25,79 -17,129 -26,30 -62,50 -120,42 -8,14 -21,44 -26,62 64,17 108,30 167,54 17,7 38,22 56,15 64,-27 155,-65 226,-76 -11,-49 -72,-147 -98,-173 -23,-23 -38,-42 -76,-59 -35,-15 -82,-11 -112,6z"/>
   <path class="fil1" d="M750 1150c20,15 167,64 201,69 14,-23 42,-170 45,-206 -13,5 -44,27 -59,37 -48,31 -136,78 -187,100z"/>
   <path class="fil1" d="M758 406c9,8 47,25 60,32l117 68c17,11 40,30 58,39 -6,-61 -27,-144 -46,-199 -52,8 -142,41 -189,60z"/>
   <path class="fil1" d="M211 773c12,18 50,55 67,71l36 33c9,7 29,26 38,31 -7,-147 -5,-113 1,-266 -22,12 -124,107 -142,131z"/>
   <path class="fil1" d="M424 522c14,-7 35,-21 48,-30l100 -58c15,-7 40,-16 52,-28 -52,-17 -105,-42 -163,-51 -11,54 -31,108 -37,167z"/>
   <path class="fil1" d="M1061 895c13,-8 22,-16 33,-26 17,-14 84,-70 92,-86 -10,-19 -100,-98 -124,-117 -3,25 3,81 3,112 0,40 -3,78 -4,117z"/>
   <path class="fil1" d="M225 1178c-90,18 -63,150 26,133 88,-17 60,-151 -26,-133z"/>
   <path class="fil1" d="M1330 893c-32,7 -60,38 -53,78 6,33 39,64 81,54 90,-22 55,-152 -28,-132z"/>
   <path class="fil1" d="M513 57c-19,6 -30,14 -39,28 -34,49 15,121 77,101 29,-9 57,-42 46,-83 -9,-29 -43,-59 -84,-46z"/>
   <path class="fil1" d="M457 1194c28,-3 137,-36 157,-48 -52,-25 -98,-55 -146,-86 -15,-10 -32,-23 -47,-31 3,28 25,148 36,165z"/>
  </g>
 </g>
</svg>
