<svg id="Layer_1" enable-background="new 0 0 256 256" height="512" viewBox="0 0 256 256" width="512" xmlns="http://www.w3.org/2000/svg"><g><g><path d="m243.15 191.318h-230.3c-4.888 0-8.85-3.962-8.85-8.85v-141.796c0-4.888 3.962-8.85 8.85-8.85h230.3c4.888 0 8.85 3.962 8.85 8.85v141.796c0 4.888-3.962 8.85-8.85 8.85z" fill="#f4efed"/></g><g><path d="m243.15 31.822h-10c4.888 0 8.85 3.962 8.85 8.85v141.796c0 4.888-3.962 8.85-8.85 8.85h10c4.888 0 8.85-3.962 8.85-8.85v-141.796c0-4.888-3.962-8.85-8.85-8.85z" fill="#d6d1cf"/></g><g><path d="m12.85 191.318h10c-4.888 0-8.85-3.962-8.85-8.85v-141.796c0-4.888 3.962-8.85 8.85-8.85h-10c-4.888 0-8.85 3.962-8.85 8.85v141.796c0 4.888 3.962 8.85 8.85 8.85z" fill="#fff"/></g><g><path d="m208.901 224.178h-161.802v-11.854c0-4.888 3.962-8.85 8.85-8.85h144.102c4.888 0 8.85 3.962 8.85 8.85z" fill="#526faa"/></g><g><path d="m200.051 203.474h-10c4.888 0 8.85 3.962 8.85 8.85v11.855h10v-11.855c0-4.888-3.962-8.85-8.85-8.85z" fill="#34518c"/></g><g><path d="m55.949 203.474h10c-4.888 0-8.85 3.962-8.85 8.85v11.855h-10v-11.855c0-4.888 3.962-8.85 8.85-8.85z" fill="#708dc8"/></g><g><path d="m80.503 191.318h94.993v12.156h-94.993z" fill="#34518c"/></g><g><path d="m12 69.026c-1.104 0-2-.896-2-2v-12c0-1.104.896-2 2-2s2 .896 2 2v12c0 1.104-.896 2-2 2z" fill="#690589"/></g><g><path d="m208.901 226.178h-161.802c-1.104 0-2-.896-2-2v-11.854c0-5.983 4.867-10.85 10.85-10.85h144.102c5.983 0 10.85 4.867 10.85 10.85v11.854c0 1.105-.896 2-2 2zm-159.802-4h157.802v-9.854c0-3.777-3.073-6.85-6.85-6.85h-144.102c-3.777 0-6.85 3.073-6.85 6.85z" fill="#690589"/></g><g><path d="m175.497 205.474h-94.994c-1.104 0-2-.896-2-2v-12.155c0-1.104.896-2 2-2h94.993c1.104 0 2 .896 2 2v12.155c.001 1.104-.895 2-1.999 2zm-92.994-4h90.993v-8.155h-90.993z" fill="#690589"/></g><g><path d="m243.15 193.318h-230.3c-5.983 0-10.85-4.867-10.85-10.85v-141.796c0-5.983 4.867-10.85 10.85-10.85h230.3c5.983 0 10.85 4.867 10.85 10.85v141.796c0 5.983-4.867 10.85-10.85 10.85zm-230.3-159.496c-3.777 0-6.85 3.073-6.85 6.85v141.796c0 3.777 3.073 6.85 6.85 6.85h230.3c3.777 0 6.85-3.073 6.85-6.85v-141.796c0-3.777-3.073-6.85-6.85-6.85z" fill="#690589"/></g><g><path d="m169.326 162.114h-82.652c-27.915 0-50.544-22.629-50.544-50.544 0-27.914 22.629-50.544 50.544-50.544h82.653c27.915 0 50.544 22.629 50.544 50.544-.001 27.915-22.63 50.544-50.545 50.544z" fill="#8852a8"/></g><g><path d="m169.326 61.026h-9c27.915 0 50.544 22.629 50.544 50.544 0 27.915-22.629 50.544-50.544 50.544h9c27.915 0 50.544-22.629 50.544-50.544 0-27.915-22.629-50.544-50.544-50.544z" fill="#6a348a"/></g><g><path d="m86.674 162.114h9c-27.915 0-50.544-22.629-50.544-50.544 0-27.914 22.629-50.544 50.544-50.544h-9c-27.915 0-50.544 22.629-50.544 50.544 0 27.915 22.629 50.544 50.544 50.544z" fill="#a670c6"/></g><g><path d="m169.326 164.114h-82.652c-28.973 0-52.544-23.571-52.544-52.543 0-28.973 23.571-52.544 52.544-52.544h82.652c28.973 0 52.544 23.571 52.544 52.544s-23.571 52.543-52.544 52.543zm-82.652-101.088c-26.767 0-48.544 21.777-48.544 48.544s21.777 48.544 48.544 48.544h82.652c26.767 0 48.544-21.776 48.544-48.543 0-26.768-21.777-48.544-48.544-48.544h-82.652z" fill="#690589"/></g><g><path d="m216.757 144.099-12.274-1.054-12.275-1.054 1.054 12.275 1.054 12.274 6.699-6.699 18.058 18.057 9.042-9.042-18.058-18.057z" fill="#526faa"/></g><g><path d="m219.073 179.898c-.512 0-1.024-.195-1.414-.586l-16.643-16.643-5.286 5.285c-.548.551-1.367.732-2.1.465-.731-.267-1.241-.933-1.307-1.708l-2.108-24.549c-.05-.588.161-1.168.579-1.585.417-.417.995-.626 1.585-.579l24.549 2.108c.775.066 1.441.576 1.708 1.307s.085 1.55-.465 2.1l-5.286 5.286 16.643 16.643c.375.375.586.884.586 1.414s-.211 1.039-.586 1.414l-9.042 9.042c-.389.391-.902.586-1.413.586zm-18.057-22.057c.512 0 1.024.195 1.414.586l16.643 16.643 6.213-6.213-16.643-16.643c-.375-.375-.586-.884-.586-1.414s.211-1.039.586-1.414l3.661-3.661-17.9-1.537 1.537 17.9 3.661-3.66c.39-.392.902-.587 1.414-.587z" fill="#690589"/></g><g><path d="m82.832 118.323h-8.64v15.243c0 2.107-1.756 3.863-3.934 3.863-2.107 0-3.863-1.755-3.863-3.863v-41.444c0-2.178 1.756-3.863 3.863-3.863h.07 12.503c8.359 0 15.102 6.743 15.102 15.102.002 8.219-6.742 14.962-15.101 14.962zm-8.64-7.798h8.64c4.074 0 7.235-3.231 7.305-7.164-.071-4.074-3.231-7.306-7.305-7.306h-8.64z" fill="#f4efed"/></g><g><path d="m123.779 118.323h-8.64v15.243c0 2.107-1.756 3.863-3.934 3.863-2.107 0-3.863-1.755-3.863-3.863v-41.444c0-2.178 1.756-3.863 3.863-3.863h.07 12.503c8.359 0 15.102 6.743 15.102 15.102.001 8.219-6.742 14.962-15.101 14.962zm-8.64-7.798h8.64c4.074 0 7.235-3.231 7.305-7.164-.07-4.074-3.231-7.306-7.305-7.306h-8.64z" fill="#f4efed"/></g><g><path d="m146.111 112.141c.071-13.908 11.731-25.217 25.779-25.287 6.181 0 11.801 2.037 16.226 5.479 1.686 1.404 1.967 3.863.703 5.619-1.405 1.756-4.004 2.037-5.62.773-3.09-2.529-6.954-3.864-11.309-3.864-4.847 0-9.343 1.968-12.644 5.058-3.161 3.231-5.128 7.446-5.128 12.222s1.967 9.132 5.128 12.222c3.301 3.091 7.797 5.058 12.644 5.058 4.355 0 8.148-1.335 11.309-3.864 1.616-1.194 4.215-.912 5.62.772 1.264 1.756.983 4.285-.703 5.62-4.425 3.441-10.045 5.478-16.226 5.478-14.048.001-25.708-11.308-25.779-25.286z" fill="#f4efed"/></g><g><circle cx="208.075" cy="69.125" fill="#fcc24c" r="25.649"/></g><g><path d="m208.075 43.476c-.821 0-1.631.043-2.432.118 13.024 1.226 23.217 12.186 23.217 25.531s-10.193 24.305-23.217 25.531c.801.075 1.612.118 2.432.118 14.166 0 25.649-11.483 25.649-25.649 0-14.165-11.483-25.649-25.649-25.649z" fill="#dea42e"/></g><g><path d="m208.075 94.775c.821 0 1.631-.043 2.432-.118-13.024-1.226-23.217-12.186-23.217-25.531s10.193-24.305 23.217-25.531c-.801-.075-1.612-.118-2.432-.118-14.166 0-25.649 11.484-25.649 25.649s11.483 25.649 25.649 25.649z" fill="#fce06a"/></g><g><path d="m208.075 96.774c-15.246 0-27.649-12.403-27.649-27.649s12.403-27.649 27.649-27.649 27.649 12.403 27.649 27.649-12.403 27.649-27.649 27.649zm0-51.298c-13.04 0-23.649 10.609-23.649 23.649s10.609 23.649 23.649 23.649c13.041 0 23.649-10.609 23.649-23.649s-10.609-23.649-23.649-23.649z" fill="#690589"/></g><g><g><path d="m208.046 53.759c.872 0 1.562.69 1.562 1.562v.799c2.143.254 3.959.945 5.63 1.998.582.327 1.09.872 1.09 1.743 0 1.126-.908 1.998-2.034 1.998-.363 0-.726-.109-1.089-.327-1.271-.763-2.507-1.307-3.741-1.598v6.974c5.521 1.381 7.882 3.596 7.882 7.483 0 3.996-3.124 6.647-7.737 7.083v2.18c0 .872-.69 1.562-1.562 1.562s-1.599-.69-1.599-1.562v-2.252c-2.724-.291-5.23-1.271-7.446-2.833-.618-.399-.981-.981-.981-1.743 0-1.126.872-1.998 1.998-1.998.436 0 .871.145 1.199.399 1.707 1.235 3.378 2.07 5.376 2.434v-7.156c-5.304-1.38-7.774-3.378-7.774-7.483 0-3.887 3.088-6.575 7.628-6.938v-.763c-.001-.871.726-1.562 1.598-1.562zm-1.453 12.387v-6.429c-2.325.218-3.487 1.453-3.487 3.051 0 1.525.69 2.47 3.487 3.378zm2.869 5.049v6.611c2.325-.254 3.596-1.417 3.596-3.16.001-1.599-.799-2.58-3.596-3.451z" fill="#690589"/></g></g></g></svg>