<svg width="50" height="50" viewBox="0 0 50 50" fill="none" xmlns="http://www.w3.org/2000/svg">
<circle cx="25" cy="25" r="24.5" transform="rotate(-90 25 25)" fill="#FFFEFE" stroke="#E0E0E0"/>
<path d="M19.269 14.5964L28.8329 24.501L19.269 34.4056C19.0978 34.5825 19.002 34.8201 19.002 35.0675C19.002 35.3148 19.0978 35.5524 19.269 35.7294C19.3522 35.8151 19.4515 35.8831 19.561 35.9296C19.6706 35.9761 19.7882 36 19.907 36C20.0259 36 20.1435 35.9761 20.253 35.9296C20.3626 35.8831 20.4618 35.8151 20.545 35.7294L30.7213 25.1926C30.9 25.0076 31 24.7594 31 24.501C31 24.2426 30.9 23.9944 30.7213 23.8094L20.547 13.2727C20.4637 13.1864 20.3642 13.1178 20.2543 13.071C20.1444 13.0241 20.0263 13 19.907 13C19.7877 13 19.6696 13.0241 19.5597 13.071C19.4498 13.1178 19.3503 13.1864 19.2671 13.2727C19.0959 13.4496 19 13.6872 19 13.9346C19 14.1819 19.0959 14.4195 19.2671 14.5964L19.269 14.5964Z" fill="#CB4C4E"/>
</svg>
