<svg width="50" height="50" viewBox="0 0 50 50" fill="none" xmlns="http://www.w3.org/2000/svg">
<g id="Group 34249">
<circle id="Ellipse 291" cx="25" cy="25" r="24.5" transform="rotate(90 25 25)" fill="#FFFEFE" stroke="#E0E0E0"/>
<path id="Vector" d="M30.731 35.4036L21.1671 25.499L30.731 15.5944C30.9022 15.4175 30.998 15.1799 30.998 14.9325C30.998 14.6852 30.9022 14.4476 30.731 14.2706C30.6478 14.1849 30.5485 14.1169 30.439 14.0704C30.3294 14.0239 30.2118 14 30.093 14C29.9741 14 29.8565 14.0239 29.747 14.0704C29.6374 14.1169 29.5382 14.1849 29.455 14.2706L19.2787 24.8074C19.1 24.9924 19 25.2406 19 25.499C19 25.7574 19.1 26.0056 19.2787 26.1906L29.453 36.7273C29.5363 36.8136 29.6358 36.8822 29.7457 36.929C29.8556 36.9759 29.9737 37 30.093 37C30.2123 37 30.3304 36.9759 30.4403 36.929C30.5502 36.8822 30.6497 36.8136 30.7329 36.7273C30.9041 36.5504 31 36.3128 31 36.0654C31 35.8181 30.9041 35.5805 30.7329 35.4036L30.731 35.4036Z" fill="#CB4C4E"/>
</g>
</svg>
